<svg xmlns="http://www.w3.org/2000/svg" width="500" height="1624" viewBox="0 0 500 1624">
<style>text { font-family: -apple-system, BlinkMacSystemFont, "Segoe UI", Helvetica, Arial, sans-serif; }</style>
<rect width="500" height="1624" fill="white" rx="6" />
<text x="20" y="30" font-weight="bold" font-size="18" fill="#24292e">Total Volume (All Branches)</text>
<line x1="20" y1="45" x2="480" y2="45" stroke="#e1e4e8" stroke-width="1"/>
<text x="20" y="81" font-size="12" fill="#24292e">Python</text>
<rect x="110" y="65" width="350" height="12" fill="#f6f8fa" rx="3" />
<rect x="110" y="65" width="84.11721338514992" height="12" fill="#3572A5" rx="3" />
<text x="480" y="76" font-size="11" fill="#586069" text-anchor="end">1,350,703 (24.7%)</text>
<text x="20" y="118" font-size="12" fill="#24292e">C++</text>
<rect x="110" y="102" width="350" height="12" fill="#f6f8fa" rx="3" />
<rect x="110" y="102" width="80.41362297333114" height="12" fill="#f34b7d" rx="3" />
<text x="480" y="113" font-size="11" fill="#586069" text-anchor="end">1,291,233 (23.7%)</text>
<text x="20" y="155" font-size="12" fill="#24292e">XML</text>
<rect x="110" y="139" width="350" height="12" fill="#f6f8fa" rx="3" />
<rect x="110" y="139" width="53.94176367012955" height="12" fill="#0060ac" rx="3" />
<text x="480" y="150" font-size="11" fill="#586069" text-anchor="end">866,164 (15.9%)</text>
<text x="20" y="192" font-size="12" fill="#24292e">C Header</text>
<rect x="110" y="176" width="350" height="12" fill="#f6f8fa" rx="3" />
<rect x="110" y="176" width="32.004327125881005" height="12" fill="#555555" rx="3" />
<text x="480" y="187" font-size="11" fill="#586069" text-anchor="end">513,906 (9.4%)</text>
<text x="20" y="229" font-size="12" fill="#24292e">Markdown</text>
<rect x="110" y="213" width="350" height="12" fill="#f6f8fa" rx="3" />
<rect x="110" y="213" width="24.81903788854427" height="12" fill="#083fa1" rx="3" />
<text x="480" y="224" font-size="11" fill="#586069" text-anchor="end">398,529 (7.3%)</text>
<text x="20" y="266" font-size="12" fill="#24292e">Java</text>
<rect x="110" y="250" width="350" height="12" fill="#f6f8fa" rx="3" />
<rect x="110" y="250" width="17.456820782366485" height="12" fill="#b07219" rx="3" />
<text x="480" y="261" font-size="11" fill="#586069" text-anchor="end">280,311 (5.1%)</text>
<text x="20" y="303" font-size="12" fill="#24292e">JavaScript</text>
<rect x="110" y="287" width="350" height="12" fill="#f6f8fa" rx="3" />
<rect x="110" y="287" width="7.1984918801365625" height="12" fill="#f1e05a" rx="3" />
<text x="480" y="298" font-size="11" fill="#586069" text-anchor="end">115,589 (2.1%)</text>
<text x="20" y="340" font-size="12" fill="#24292e">YAML</text>
<rect x="110" y="324" width="350" height="12" fill="#f6f8fa" rx="3" />
<rect x="110" y="324" width="6.186372300972632" height="12" fill="#cb171e" rx="3" />
<text x="480" y="335" font-size="11" fill="#586069" text-anchor="end">99,337 (1.8%)</text>
<text x="20" y="377" font-size="12" fill="#24292e">Rust</text>
<rect x="110" y="361" width="350" height="12" fill="#f6f8fa" rx="3" />
<rect x="110" y="361" width="5.984533785339462" height="12" fill="#dea584" rx="3" />
<text x="480" y="372" font-size="11" fill="#586069" text-anchor="end">96,096 (1.8%)</text>
<text x="20" y="414" font-size="12" fill="#24292e">C++ Header</text>
<rect x="110" y="398" width="350" height="12" fill="#f6f8fa" rx="3" />
<rect x="110" y="398" width="5.813148535409661" height="12" fill="#f34b7d" rx="3" />
<text x="480" y="409" font-size="11" fill="#586069" text-anchor="end">93,344 (1.7%)</text>
<text x="20" y="451" font-size="12" fill="#24292e">reStructuredText</text>
<rect x="110" y="435" width="350" height="12" fill="#f6f8fa" rx="3" />
<rect x="110" y="435" width="5.531097737105855" height="12" fill="#141F1F" rx="3" />
<text x="480" y="446" font-size="11" fill="#586069" text-anchor="end">88,815 (1.6%)</text>
<text x="20" y="488" font-size="12" fill="#24292e">JSON</text>
<rect x="110" y="472" width="350" height="12" fill="#f6f8fa" rx="3" />
<rect x="110" y="472" width="5.011025708703323" height="12" fill="#292929" rx="3" />
<text x="480" y="483" font-size="11" fill="#586069" text-anchor="end">80,464 (1.5%)</text>
<text x="20" y="525" font-size="12" fill="#24292e">HTML</text>
<rect x="110" y="509" width="350" height="12" fill="#f6f8fa" rx="3" />
<rect x="110" y="509" width="2.607521952965402" height="12" fill="#e34c26" rx="3" />
<text x="480" y="520" font-size="11" fill="#586069" text-anchor="end">41,870 (0.8%)</text>
<text x="20" y="562" font-size="12" fill="#24292e">Shell</text>
<rect x="110" y="546" width="350" height="12" fill="#f6f8fa" rx="3" />
<rect x="110" y="546" width="2" height="12" fill="#89e051" rx="3" />
<text x="480" y="557" font-size="11" fill="#586069" text-anchor="end">22,283 (0.4%)</text>
<text x="20" y="599" font-size="12" fill="#24292e">Robotics (Xacro)</text>
<rect x="110" y="583" width="350" height="12" fill="#f6f8fa" rx="3" />
<rect x="110" y="583" width="2" height="12" fill="#9b59b6" rx="3" />
<text x="480" y="594" font-size="11" fill="#586069" text-anchor="end">21,498 (0.4%)</text>
<text x="20" y="636" font-size="12" fill="#24292e">Qt UI (XML)</text>
<rect x="110" y="620" width="350" height="12" fill="#f6f8fa" rx="3" />
<rect x="110" y="620" width="2" height="12" fill="#41cd52" rx="3" />
<text x="480" y="631" font-size="11" fill="#586069" text-anchor="end">17,855 (0.3%)</text>
<text x="20" y="673" font-size="12" fill="#24292e">C</text>
<rect x="110" y="657" width="350" height="12" fill="#f6f8fa" rx="3" />
<rect x="110" y="657" width="2" height="12" fill="#555555" rx="3" />
<text x="480" y="668" font-size="11" fill="#586069" text-anchor="end">15,244 (0.3%)</text>
<text x="20" y="710" font-size="12" fill="#24292e">TypeScript</text>
<rect x="110" y="694" width="350" height="12" fill="#f6f8fa" rx="3" />
<rect x="110" y="694" width="2" height="12" fill="#2b7489" rx="3" />
<text x="480" y="705" font-size="11" fill="#586069" text-anchor="end">13,277 (0.2%)</text>
<text x="20" y="747" font-size="12" fill="#24292e">Robotics (Launch)</text>
<rect x="110" y="731" width="350" height="12" fill="#f6f8fa" rx="3" />
<rect x="110" y="731" width="2" height="12" fill="#8e44ad" rx="3" />
<text x="480" y="742" font-size="11" fill="#586069" text-anchor="end">11,459 (0.2%)</text>
<text x="20" y="784" font-size="12" fill="#24292e">Cuda</text>
<rect x="110" y="768" width="350" height="12" fill="#f6f8fa" rx="3" />
<rect x="110" y="768" width="2" height="12" fill="#3A4E3A" rx="3" />
<text x="480" y="779" font-size="11" fill="#586069" text-anchor="end">5,960 (0.1%)</text>
<text x="20" y="821" font-size="12" fill="#24292e">Dockerfile</text>
<rect x="110" y="805" width="350" height="12" fill="#f6f8fa" rx="3" />
<rect x="110" y="805" width="2" height="12" fill="#384d54" rx="3" />
<text x="480" y="816" font-size="11" fill="#586069" text-anchor="end">5,595 (0.1%)</text>
<text x="20" y="858" font-size="12" fill="#24292e">CSS</text>
<rect x="110" y="842" width="350" height="12" fill="#f6f8fa" rx="3" />
<rect x="110" y="842" width="2" height="12" fill="#563d7c" rx="3" />
<text x="480" y="853" font-size="11" fill="#586069" text-anchor="end">5,136 (0.1%)</text>
<text x="20" y="895" font-size="12" fill="#24292e">TOML</text>
<rect x="110" y="879" width="350" height="12" fill="#f6f8fa" rx="3" />
<rect x="110" y="879" width="2" height="12" fill="#9c4221" rx="3" />
<text x="480" y="890" font-size="11" fill="#586069" text-anchor="end">4,360 (0.1%)</text>
<text x="20" y="932" font-size="12" fill="#24292e">Robotics (ROS Action)</text>
<rect x="110" y="916" width="350" height="12" fill="#f6f8fa" rx="3" />
<rect x="110" y="916" width="2" height="12" fill="#1abc9c" rx="3" />
<text x="480" y="927" font-size="11" fill="#586069" text-anchor="end">3,270 (0.1%)</text>
<text x="20" y="969" font-size="12" fill="#24292e">Cython</text>
<rect x="110" y="953" width="350" height="12" fill="#f6f8fa" rx="3" />
<rect x="110" y="953" width="2" height="12" fill="#f1c40f" rx="3" />
<text x="480" y="964" font-size="11" fill="#586069" text-anchor="end">2,407 (0.0%)</text>
<text x="20" y="1006" font-size="12" fill="#24292e">Robotics (ROS Srv)</text>
<rect x="110" y="990" width="350" height="12" fill="#f6f8fa" rx="3" />
<rect x="110" y="990" width="2" height="12" fill="#3498db" rx="3" />
<text x="480" y="1001" font-size="11" fill="#586069" text-anchor="end">2,358 (0.0%)</text>
<text x="20" y="1043" font-size="12" fill="#24292e">GraphQL</text>
<rect x="110" y="1027" width="350" height="12" fill="#f6f8fa" rx="3" />
<rect x="110" y="1027" width="2" height="12" fill="#e10098" rx="3" />
<text x="480" y="1038" font-size="11" fill="#586069" text-anchor="end">2,287 (0.0%)</text>
<text x="20" y="1080" font-size="12" fill="#24292e">CMake</text>
<rect x="110" y="1064" width="350" height="12" fill="#f6f8fa" rx="3" />
<rect x="110" y="1064" width="2" height="12" fill="#064f8d" rx="3" />
<text x="480" y="1075" font-size="11" fill="#586069" text-anchor="end">1,681 (0.0%)</text>
<text x="20" y="1117" font-size="12" fill="#24292e">Robotics (URDF)</text>
<rect x="110" y="1101" width="350" height="12" fill="#f6f8fa" rx="3" />
<rect x="110" y="1101" width="2" height="12" fill="#884ea0" rx="3" />
<text x="480" y="1112" font-size="11" fill="#586069" text-anchor="end">1,553 (0.0%)</text>
<text x="20" y="1154" font-size="12" fill="#24292e">Robotics (Config)</text>
<rect x="110" y="1138" width="350" height="12" fill="#f6f8fa" rx="3" />
<rect x="110" y="1138" width="2" height="12" fill="#e67e22" rx="3" />
<text x="480" y="1149" font-size="11" fill="#586069" text-anchor="end">1,378 (0.0%)</text>
<text x="20" y="1191" font-size="12" fill="#24292e">Robotics (SRDF)</text>
<rect x="110" y="1175" width="350" height="12" fill="#f6f8fa" rx="3" />
<rect x="110" y="1175" width="2" height="12" fill="#16a085" rx="3" />
<text x="480" y="1186" font-size="11" fill="#586069" text-anchor="end">830 (0.0%)</text>
<text x="20" y="1228" font-size="12" fill="#24292e">TeX</text>
<rect x="110" y="1212" width="350" height="12" fill="#f6f8fa" rx="3" />
<rect x="110" y="1212" width="2" height="12" fill="#3D6117" rx="3" />
<text x="480" y="1223" font-size="11" fill="#586069" text-anchor="end">798 (0.0%)</text>
<text x="20" y="1265" font-size="12" fill="#24292e">Robotics (ROS Msg)</text>
<rect x="110" y="1249" width="350" height="12" fill="#f6f8fa" rx="3" />
<rect x="110" y="1249" width="2" height="12" fill="#2980b9" rx="3" />
<text x="480" y="1260" font-size="11" fill="#586069" text-anchor="end">753 (0.0%)</text>
<text x="20" y="1302" font-size="12" fill="#24292e">WebAssembly</text>
<rect x="110" y="1286" width="350" height="12" fill="#f6f8fa" rx="3" />
<rect x="110" y="1286" width="2" height="12" fill="#04133b" rx="3" />
<text x="480" y="1297" font-size="11" fill="#586069" text-anchor="end">744 (0.0%)</text>
<text x="20" y="1339" font-size="12" fill="#24292e">WGSL</text>
<rect x="110" y="1323" width="350" height="12" fill="#f6f8fa" rx="3" />
<rect x="110" y="1323" width="2" height="12" fill="#3b8686" rx="3" />
<text x="480" y="1334" font-size="11" fill="#586069" text-anchor="end">633 (0.0%)</text>
<text x="20" y="1376" font-size="12" fill="#24292e">Awk</text>
<rect x="110" y="1360" width="350" height="12" fill="#f6f8fa" rx="3" />
<rect x="110" y="1360" width="2" height="12" fill="#c30e9b" rx="3" />
<text x="480" y="1371" font-size="11" fill="#586069" text-anchor="end">569 (0.0%)</text>
<text x="20" y="1413" font-size="12" fill="#24292e">Google Apps Script</text>
<rect x="110" y="1397" width="350" height="12" fill="#f6f8fa" rx="3" />
<rect x="110" y="1397" width="2" height="12" fill="#4285f4" rx="3" />
<text x="480" y="1408" font-size="11" fill="#586069" text-anchor="end">551 (0.0%)</text>
<text x="20" y="1450" font-size="12" fill="#24292e">Makefile</text>
<rect x="110" y="1434" width="350" height="12" fill="#f6f8fa" rx="3" />
<rect x="110" y="1434" width="2" height="12" fill="#427819" rx="3" />
<text x="480" y="1445" font-size="11" fill="#586069" text-anchor="end">274 (0.0%)</text>
<text x="20" y="1487" font-size="12" fill="#24292e">Zig</text>
<rect x="110" y="1471" width="350" height="12" fill="#f6f8fa" rx="3" />
<rect x="110" y="1471" width="2" height="12" fill="#ec915c" rx="3" />
<text x="480" y="1482" font-size="11" fill="#586069" text-anchor="end">162 (0.0%)</text>
<text x="20" y="1524" font-size="12" fill="#24292e">Robotics (Gazebo World)</text>
<rect x="110" y="1508" width="350" height="12" fill="#f6f8fa" rx="3" />
<rect x="110" y="1508" width="2" height="12" fill="#d35400" rx="3" />
<text x="480" y="1519" font-size="11" fill="#586069" text-anchor="end">156 (0.0%)</text>
<text x="20" y="1561" font-size="12" fill="#24292e">Qt Resource</text>
<rect x="110" y="1545" width="350" height="12" fill="#f6f8fa" rx="3" />
<rect x="110" y="1545" width="2" height="12" fill="#2ecc71" rx="3" />
<text x="480" y="1556" font-size="11" fill="#586069" text-anchor="end">49 (0.0%)</text>
<text x="20" y="1598" font-size="12" fill="#24292e">Structured Text</text>
<rect x="110" y="1582" width="350" height="12" fill="#f6f8fa" rx="3" />
<rect x="110" y="1582" width="2" height="12" fill="#ededed" rx="3" />
<text x="480" y="1593" font-size="11" fill="#586069" text-anchor="end">32 (0.0%)</text>
</svg>