<svg xmlns="http://www.w3.org/2000/svg" width="500" height="1106" viewBox="0 0 500 1106">
<style>text { font-family: -apple-system, BlinkMacSystemFont, "Segoe UI", Helvetica, Arial, sans-serif; }</style>
<rect width="500" height="1106" fill="white" rx="6" />
<text x="20" y="30" font-weight="bold" font-size="18" fill="#24292e">Total Volume (All Branches)</text>
<line x1="20" y1="45" x2="480" y2="45" stroke="#e1e4e8" stroke-width="1"/>
<text x="20" y="81" font-size="12" fill="#24292e">C++</text>
<rect x="110" y="65" width="350" height="12" fill="#f6f8fa" rx="3" />
<rect x="110" y="65" width="115.66331132403735" height="12" fill="#f34b7d" rx="3" />
<text x="480" y="76" font-size="11" fill="#586069" text-anchor="end">1,289,534 (34.0%)</text>
<text x="20" y="118" font-size="12" fill="#24292e">Python</text>
<rect x="110" y="102" width="350" height="12" fill="#f6f8fa" rx="3" />
<rect x="110" y="102" width="84.34561585534593" height="12" fill="#3572A5" rx="3" />
<text x="480" y="113" font-size="11" fill="#586069" text-anchor="end">940,372 (24.8%)</text>
<text x="20" y="155" font-size="12" fill="#24292e">C Header</text>
<rect x="110" y="139" width="350" height="12" fill="#f6f8fa" rx="3" />
<rect x="110" y="139" width="44.24581294446287" height="12" fill="#555555" rx="3" />
<text x="480" y="150" font-size="11" fill="#586069" text-anchor="end">493,298 (13.0%)</text>
<text x="20" y="192" font-size="12" fill="#24292e">XML</text>
<rect x="110" y="176" width="350" height="12" fill="#f6f8fa" rx="3" />
<rect x="110" y="176" width="34.22601961499692" height="12" fill="#0060ac" rx="3" />
<text x="480" y="187" font-size="11" fill="#586069" text-anchor="end">381,587 (10.1%)</text>
<text x="20" y="229" font-size="12" fill="#24292e">Java</text>
<rect x="110" y="213" width="350" height="12" fill="#f6f8fa" rx="3" />
<rect x="110" y="213" width="8.875478774074564" height="12" fill="#b07219" rx="3" />
<text x="480" y="224" font-size="11" fill="#586069" text-anchor="end">98,953 (2.6%)</text>
<text x="20" y="266" font-size="12" fill="#24292e">YAML</text>
<rect x="110" y="250" width="350" height="12" fill="#f6f8fa" rx="3" />
<rect x="110" y="250" width="8.520739468025582" height="12" fill="#cb171e" rx="3" />
<text x="480" y="261" font-size="11" fill="#586069" text-anchor="end">94,998 (2.5%)</text>
<text x="20" y="303" font-size="12" fill="#24292e">C++ Header</text>
<rect x="110" y="287" width="350" height="12" fill="#f6f8fa" rx="3" />
<rect x="110" y="287" width="8.372385786052126" height="12" fill="#f34b7d" rx="3" />
<text x="480" y="298" font-size="11" fill="#586069" text-anchor="end">93,344 (2.5%)</text>
<text x="20" y="340" font-size="12" fill="#24292e">reStructuredText</text>
<rect x="110" y="324" width="350" height="12" fill="#f6f8fa" rx="3" />
<rect x="110" y="324" width="7.966162191337629" height="12" fill="#141F1F" rx="3" />
<text x="480" y="335" font-size="11" fill="#586069" text-anchor="end">88,815 (2.3%)</text>
<text x="20" y="377" font-size="12" fill="#24292e">Markdown</text>
<rect x="110" y="361" width="350" height="12" fill="#f6f8fa" rx="3" />
<rect x="110" y="361" width="6.895396619754128" height="12" fill="#083fa1" rx="3" />
<text x="480" y="372" font-size="11" fill="#586069" text-anchor="end">76,877 (2.0%)</text>
<text x="20" y="414" font-size="12" fill="#24292e">CMake</text>
<rect x="110" y="398" width="350" height="12" fill="#f6f8fa" rx="3" />
<rect x="110" y="398" width="5.457872761840846" height="12" fill="#064f8d" rx="3" />
<text x="480" y="409" font-size="11" fill="#586069" text-anchor="end">60,850 (1.6%)</text>
<text x="20" y="451" font-size="12" fill="#24292e">JSON</text>
<rect x="110" y="435" width="350" height="12" fill="#f6f8fa" rx="3" />
<rect x="110" y="435" width="4.011558903423695" height="12" fill="#292929" rx="3" />
<text x="480" y="446" font-size="11" fill="#586069" text-anchor="end">44,725 (1.2%)</text>
<text x="20" y="488" font-size="12" fill="#24292e">HTML</text>
<rect x="110" y="472" width="350" height="12" fill="#f6f8fa" rx="3" />
<rect x="110" y="472" width="3.020710581319244" height="12" fill="#e34c26" rx="3" />
<text x="480" y="483" font-size="11" fill="#586069" text-anchor="end">33,678 (0.9%)</text>
<text x="20" y="525" font-size="12" fill="#24292e">JavaScript</text>
<rect x="110" y="509" width="350" height="12" fill="#f6f8fa" rx="3" />
<rect x="110" y="509" width="2.778088628635933" height="12" fill="#f1e05a" rx="3" />
<text x="480" y="520" font-size="11" fill="#586069" text-anchor="end">30,973 (0.8%)</text>
<text x="20" y="562" font-size="12" fill="#24292e">C</text>
<rect x="110" y="546" width="350" height="12" fill="#f6f8fa" rx="3" />
<rect x="110" y="546" width="2" height="12" fill="#555555" rx="3" />
<text x="480" y="557" font-size="11" fill="#586069" text-anchor="end">15,244 (0.4%)</text>
<text x="20" y="599" font-size="12" fill="#24292e">Rust</text>
<rect x="110" y="583" width="350" height="12" fill="#f6f8fa" rx="3" />
<rect x="110" y="583" width="2" height="12" fill="#dea584" rx="3" />
<text x="480" y="594" font-size="11" fill="#586069" text-anchor="end">13,118 (0.3%)</text>
<text x="20" y="636" font-size="12" fill="#24292e">TypeScript</text>
<rect x="110" y="620" width="350" height="12" fill="#f6f8fa" rx="3" />
<rect x="110" y="620" width="2" height="12" fill="#2b7489" rx="3" />
<text x="480" y="631" font-size="11" fill="#586069" text-anchor="end">8,285 (0.2%)</text>
<text x="20" y="673" font-size="12" fill="#24292e">Shell</text>
<rect x="110" y="657" width="350" height="12" fill="#f6f8fa" rx="3" />
<rect x="110" y="657" width="2" height="12" fill="#89e051" rx="3" />
<text x="480" y="668" font-size="11" fill="#586069" text-anchor="end">6,388 (0.2%)</text>
<text x="20" y="710" font-size="12" fill="#24292e">Dockerfile</text>
<rect x="110" y="694" width="350" height="12" fill="#f6f8fa" rx="3" />
<rect x="110" y="694" width="2" height="12" fill="#384d54" rx="3" />
<text x="480" y="705" font-size="11" fill="#586069" text-anchor="end">5,220 (0.1%)</text>
<text x="20" y="747" font-size="12" fill="#24292e">CSS</text>
<rect x="110" y="731" width="350" height="12" fill="#f6f8fa" rx="3" />
<rect x="110" y="731" width="2" height="12" fill="#563d7c" rx="3" />
<text x="480" y="742" font-size="11" fill="#586069" text-anchor="end">4,826 (0.1%)</text>
<text x="20" y="784" font-size="12" fill="#24292e">Cuda</text>
<rect x="110" y="768" width="350" height="12" fill="#f6f8fa" rx="3" />
<rect x="110" y="768" width="2" height="12" fill="#3A4E3A" rx="3" />
<text x="480" y="779" font-size="11" fill="#586069" text-anchor="end">3,302 (0.1%)</text>
<text x="20" y="821" font-size="12" fill="#24292e">TOML</text>
<rect x="110" y="805" width="350" height="12" fill="#f6f8fa" rx="3" />
<rect x="110" y="805" width="2" height="12" fill="#9c4221" rx="3" />
<text x="480" y="816" font-size="11" fill="#586069" text-anchor="end">2,791 (0.1%)</text>
<text x="20" y="858" font-size="12" fill="#24292e">TeX</text>
<rect x="110" y="842" width="350" height="12" fill="#f6f8fa" rx="3" />
<rect x="110" y="842" width="2" height="12" fill="#3D6117" rx="3" />
<text x="480" y="853" font-size="11" fill="#586069" text-anchor="end">798 (0.0%)</text>
<text x="20" y="895" font-size="12" fill="#24292e">WebAssembly</text>
<rect x="110" y="879" width="350" height="12" fill="#f6f8fa" rx="3" />
<rect x="110" y="879" width="2" height="12" fill="#04133b" rx="3" />
<text x="480" y="890" font-size="11" fill="#586069" text-anchor="end">744 (0.0%)</text>
<text x="20" y="932" font-size="12" fill="#24292e">Pip Requirements</text>
<rect x="110" y="916" width="350" height="12" fill="#f6f8fa" rx="3" />
<rect x="110" y="916" width="2" height="12" fill="#ededed" rx="3" />
<text x="480" y="927" font-size="11" fill="#586069" text-anchor="end">729 (0.0%)</text>
<text x="20" y="969" font-size="12" fill="#24292e">Awk</text>
<rect x="110" y="953" width="350" height="12" fill="#f6f8fa" rx="3" />
<rect x="110" y="953" width="2" height="12" fill="#c30e9b" rx="3" />
<text x="480" y="964" font-size="11" fill="#586069" text-anchor="end">569 (0.0%)</text>
<text x="20" y="1006" font-size="12" fill="#24292e">Makefile</text>
<rect x="110" y="990" width="350" height="12" fill="#f6f8fa" rx="3" />
<rect x="110" y="990" width="2" height="12" fill="#427819" rx="3" />
<text x="480" y="1001" font-size="11" fill="#586069" text-anchor="end">274 (0.0%)</text>
<text x="20" y="1043" font-size="12" fill="#24292e">WGSL</text>
<rect x="110" y="1027" width="350" height="12" fill="#f6f8fa" rx="3" />
<rect x="110" y="1027" width="2" height="12" fill="#3b8686" rx="3" />
<text x="480" y="1038" font-size="11" fill="#586069" text-anchor="end">217 (0.0%)</text>
<text x="20" y="1080" font-size="12" fill="#24292e">Zig</text>
<rect x="110" y="1064" width="350" height="12" fill="#f6f8fa" rx="3" />
<rect x="110" y="1064" width="2" height="12" fill="#ec915c" rx="3" />
<text x="480" y="1075" font-size="11" fill="#586069" text-anchor="end">162 (0.0%)</text>
</svg>